<svg xmlns="http://www.w3.org/2000/svg" viewBox="0 0 48 48"><g class="nc-icon-wrapper"><path d="M43.874,20.6l-3.565-.3a16.613,16.613,0,0,0-2.166-5.218l2.318-2.739a3.408,3.408,0,0,0-4.8-4.8L32.919,9.863A16.616,16.616,0,0,0,27.7,7.691l-.3-3.565a3.409,3.409,0,0,0-6.794,0l-.3,3.565a16.6,16.6,0,0,0-5.217,2.166l-2.74-2.312a3.407,3.407,0,0,0-4.8,4.8l2.317,2.739a16.6,16.6,0,0,0-2.172,5.219l-3.57.3a3.409,3.409,0,0,0,0,6.794l3.57.3a16.621,16.621,0,0,0,2.166,5.217l-2.317,2.74a3.407,3.407,0,0,0,4.8,4.8l2.739-2.317a16.6,16.6,0,0,0,5.219,2.172l.3,3.57a3.409,3.409,0,0,0,6.794,0l.3-3.57a16.621,16.621,0,0,0,5.217-2.166l2.74,2.317a3.407,3.407,0,0,0,4.8-4.8l-2.317-2.739A16.6,16.6,0,0,0,40.309,27.7l3.57-.3a3.409,3.409,0,0,0,0-6.794ZM24,31a7,7,0,1,1,7-7A7,7,0,0,1,24,31Z"/></g></svg>